<mxfile host="app.diagrams.net" modified="2022-03-15T11:45:24.142Z" agent="5.0 (Macintosh; Intel Mac OS X 10_15_7) AppleWebKit/537.36 (KHTML, like Gecko) Chrome/99.0.4844.51 Safari/537.36" etag="wPPmberMleAKpn-DmIWL" version="17.1.2" type="github">
  <diagram name="Page-1" id="e7e014a7-5840-1c2e-5031-d8a46d1fe8dd">
    <mxGraphModel dx="1298" dy="834" grid="1" gridSize="10" guides="1" tooltips="1" connect="1" arrows="1" fold="1" page="1" pageScale="1" pageWidth="1169" pageHeight="826" background="none" math="0" shadow="0">
      <root>
        <mxCell id="0" />
        <mxCell id="1" parent="0" />
        <mxCell id="2" value="产品" style="swimlane;whiteSpace=wrap" parent="1" vertex="1">
          <mxGeometry x="164.5" y="128" width="280" height="1412" as="geometry" />
        </mxCell>
        <mxCell id="IsArL2XFpSbaTc7LkYc3-45" value="" style="shape=flexArrow;endArrow=classic;html=1;rounded=0;endWidth=10;endSize=7.17;entryX=0.75;entryY=0;entryDx=0;entryDy=0;" edge="1" parent="2" target="IsArL2XFpSbaTc7LkYc3-63">
          <mxGeometry width="50" height="50" relative="1" as="geometry">
            <mxPoint x="174.5" y="92" as="sourcePoint" />
            <mxPoint x="174.53999999999996" y="186.2840000000001" as="targetPoint" />
            <Array as="points" />
          </mxGeometry>
        </mxCell>
        <mxCell id="IsArL2XFpSbaTc7LkYc3-44" value="" style="shape=flexArrow;endArrow=classic;html=1;rounded=0;endWidth=10;endSize=7.17;" edge="1" parent="2">
          <mxGeometry width="50" height="50" relative="1" as="geometry">
            <mxPoint x="115.5" y="92" as="sourcePoint" />
            <mxPoint x="115.5" y="192" as="targetPoint" />
            <Array as="points">
              <mxPoint x="115.5" y="152" />
            </Array>
          </mxGeometry>
        </mxCell>
        <mxCell id="IsArL2XFpSbaTc7LkYc3-47" value="提取需求&lt;br&gt;" style="text;html=1;strokeColor=none;fillColor=none;align=center;verticalAlign=middle;whiteSpace=wrap;rounded=0;" vertex="1" parent="2">
          <mxGeometry x="35.5" y="122" width="60" height="30" as="geometry" />
        </mxCell>
        <mxCell id="IsArL2XFpSbaTc7LkYc3-59" value="" style="edgeStyle=orthogonalEdgeStyle;rounded=0;orthogonalLoop=1;jettySize=auto;html=1;" edge="1" parent="2" target="IsArL2XFpSbaTc7LkYc3-51">
          <mxGeometry relative="1" as="geometry">
            <mxPoint x="145.5" y="250" as="sourcePoint" />
          </mxGeometry>
        </mxCell>
        <mxCell id="IsArL2XFpSbaTc7LkYc3-51" value="&lt;div class=&quot;okr-block-clipboard&quot;&gt;&lt;/div&gt;&lt;div&gt;&lt;div&gt;&lt;div&gt;完善需求，prd,mrd，原型图。&lt;/div&gt;&lt;div&gt;并行UI出设计稿&lt;/div&gt;&lt;/div&gt;&lt;/div&gt;" style="rounded=1;whiteSpace=wrap;html=1;" vertex="1" parent="2">
          <mxGeometry x="50" y="322" width="190" height="60" as="geometry" />
        </mxCell>
        <mxCell id="IsArL2XFpSbaTc7LkYc3-62" value="&lt;span&gt;需求池&lt;/span&gt;" style="strokeWidth=2;html=1;shape=mxgraph.flowchart.database;whiteSpace=wrap;" vertex="1" parent="2">
          <mxGeometry x="80" y="42" width="130" height="60" as="geometry" />
        </mxCell>
        <mxCell id="IsArL2XFpSbaTc7LkYc3-63" value="&lt;span&gt;创建计划&lt;/span&gt;" style="rounded=1;whiteSpace=wrap;html=1;" vertex="1" parent="2">
          <mxGeometry x="85" y="192" width="120" height="60" as="geometry" />
        </mxCell>
        <mxCell id="IsArL2XFpSbaTc7LkYc3-117" value="好了的迭代N" style="endArrow=open;endSize=12;dashed=1;html=1;rounded=0;exitX=0.086;exitY=1.083;exitDx=0;exitDy=0;exitPerimeter=0;entryX=0.23;entryY=0.017;entryDx=0;entryDy=0;entryPerimeter=0;" edge="1" parent="2" target="IsArL2XFpSbaTc7LkYc3-108">
          <mxGeometry width="160" relative="1" as="geometry">
            <mxPoint x="217.98000000000002" y="1222" as="sourcePoint" />
            <mxPoint x="215.5" y="1304.02" as="targetPoint" />
          </mxGeometry>
        </mxCell>
        <mxCell id="3" value="研发" style="swimlane;whiteSpace=wrap" parent="1" vertex="1">
          <mxGeometry x="444.5" y="128" width="285.5" height="1412" as="geometry" />
        </mxCell>
        <mxCell id="IsArL2XFpSbaTc7LkYc3-76" value="" style="edgeStyle=orthogonalEdgeStyle;rounded=0;orthogonalLoop=1;jettySize=auto;html=1;" edge="1" parent="3" source="IsArL2XFpSbaTc7LkYc3-52" target="IsArL2XFpSbaTc7LkYc3-74">
          <mxGeometry relative="1" as="geometry" />
        </mxCell>
        <mxCell id="IsArL2XFpSbaTc7LkYc3-52" value="需求评审" style="rounded=1;whiteSpace=wrap;html=1;" vertex="1" parent="3">
          <mxGeometry x="-250" y="412" width="790" height="60" as="geometry" />
        </mxCell>
        <mxCell id="IsArL2XFpSbaTc7LkYc3-67" value="" style="edgeStyle=orthogonalEdgeStyle;rounded=0;orthogonalLoop=1;jettySize=auto;html=1;" edge="1" parent="3" source="IsArL2XFpSbaTc7LkYc3-64">
          <mxGeometry relative="1" as="geometry">
            <mxPoint x="142.5" y="412" as="targetPoint" />
          </mxGeometry>
        </mxCell>
        <mxCell id="IsArL2XFpSbaTc7LkYc3-64" value="上阶段任务" style="rounded=1;whiteSpace=wrap;html=1;" vertex="1" parent="3">
          <mxGeometry x="82.75" y="242" width="120" height="60" as="geometry" />
        </mxCell>
        <mxCell id="IsArL2XFpSbaTc7LkYc3-85" value="" style="edgeStyle=orthogonalEdgeStyle;rounded=0;orthogonalLoop=1;jettySize=auto;html=1;entryX=0.5;entryY=0;entryDx=0;entryDy=0;" edge="1" parent="3" source="IsArL2XFpSbaTc7LkYc3-74" target="IsArL2XFpSbaTc7LkYc3-100">
          <mxGeometry relative="1" as="geometry">
            <mxPoint x="145" y="676" as="targetPoint" />
          </mxGeometry>
        </mxCell>
        <mxCell id="IsArL2XFpSbaTc7LkYc3-74" value="技术评审，拆分需求" style="rounded=1;whiteSpace=wrap;html=1;" vertex="1" parent="3">
          <mxGeometry x="85" y="502" width="120" height="60" as="geometry" />
        </mxCell>
        <mxCell id="IsArL2XFpSbaTc7LkYc3-83" value="参与" style="endArrow=open;endSize=12;dashed=1;html=1;rounded=0;exitX=0.159;exitY=1.083;exitDx=0;exitDy=0;exitPerimeter=0;" edge="1" parent="3" source="IsArL2XFpSbaTc7LkYc3-52">
          <mxGeometry x="-0.4173" width="160" relative="1" as="geometry">
            <mxPoint x="-194.5" y="632" as="sourcePoint" />
            <mxPoint x="375.5" y="642" as="targetPoint" />
            <Array as="points">
              <mxPoint x="-124.5" y="642" />
            </Array>
            <mxPoint as="offset" />
          </mxGeometry>
        </mxCell>
        <mxCell id="IsArL2XFpSbaTc7LkYc3-86" value="开始研发" style="whiteSpace=wrap;html=1;fillColor=rgb(255, 255, 255);strokeColor=rgb(0, 0, 0);fontColor=rgb(0, 0, 0);rounded=1;" vertex="1" parent="3">
          <mxGeometry x="85" y="812" width="120" height="60" as="geometry" />
        </mxCell>
        <mxCell id="IsArL2XFpSbaTc7LkYc3-87" value="" style="edgeStyle=orthogonalEdgeStyle;rounded=0;orthogonalLoop=1;jettySize=auto;html=1;exitX=0.5;exitY=1;exitDx=0;exitDy=0;" edge="1" parent="3" source="IsArL2XFpSbaTc7LkYc3-100" target="IsArL2XFpSbaTc7LkYc3-86">
          <mxGeometry relative="1" as="geometry">
            <mxPoint x="145" y="736" as="sourcePoint" />
          </mxGeometry>
        </mxCell>
        <mxCell id="IsArL2XFpSbaTc7LkYc3-88" value="提测" style="whiteSpace=wrap;html=1;fillColor=rgb(255, 255, 255);strokeColor=rgb(0, 0, 0);fontColor=rgb(0, 0, 0);rounded=1;" vertex="1" parent="3">
          <mxGeometry x="85" y="932" width="120" height="60" as="geometry" />
        </mxCell>
        <mxCell id="IsArL2XFpSbaTc7LkYc3-89" value="" style="edgeStyle=orthogonalEdgeStyle;rounded=0;orthogonalLoop=1;jettySize=auto;html=1;" edge="1" parent="3" source="IsArL2XFpSbaTc7LkYc3-86" target="IsArL2XFpSbaTc7LkYc3-88">
          <mxGeometry relative="1" as="geometry" />
        </mxCell>
        <mxCell id="IsArL2XFpSbaTc7LkYc3-94" value="准入测试" style="text;html=1;strokeColor=none;fillColor=none;align=center;verticalAlign=middle;whiteSpace=wrap;rounded=0;" vertex="1" parent="3">
          <mxGeometry x="225.5" y="932" width="60" height="30" as="geometry" />
        </mxCell>
        <mxCell id="IsArL2XFpSbaTc7LkYc3-98" value="bug修复" style="rounded=1;whiteSpace=wrap;html=1;" vertex="1" parent="3">
          <mxGeometry x="85" y="1051" width="120" height="60" as="geometry" />
        </mxCell>
        <mxCell id="IsArL2XFpSbaTc7LkYc3-99" value="迭代1" style="rounded=1;whiteSpace=wrap;html=1;" vertex="1" parent="3">
          <mxGeometry x="0.5" y="710" width="84.5" height="28" as="geometry" />
        </mxCell>
        <mxCell id="IsArL2XFpSbaTc7LkYc3-100" value="迭代2" style="rounded=1;whiteSpace=wrap;html=1;" vertex="1" parent="3">
          <mxGeometry x="102.75" y="710" width="84.5" height="28" as="geometry" />
        </mxCell>
        <mxCell id="IsArL2XFpSbaTc7LkYc3-101" value="迭代N" style="rounded=1;whiteSpace=wrap;html=1;" vertex="1" parent="3">
          <mxGeometry x="201" y="710" width="84.5" height="28" as="geometry" />
        </mxCell>
        <mxCell id="IsArL2XFpSbaTc7LkYc3-103" value="" style="edgeStyle=orthogonalEdgeStyle;rounded=0;orthogonalLoop=1;jettySize=auto;html=1;exitX=0.5;exitY=1;exitDx=0;exitDy=0;" edge="1" parent="3" source="IsArL2XFpSbaTc7LkYc3-101">
          <mxGeometry relative="1" as="geometry">
            <mxPoint x="175.5" y="710" as="sourcePoint" />
            <mxPoint x="175.5" y="812" as="targetPoint" />
          </mxGeometry>
        </mxCell>
        <mxCell id="IsArL2XFpSbaTc7LkYc3-104" value="" style="edgeStyle=orthogonalEdgeStyle;rounded=0;orthogonalLoop=1;jettySize=auto;html=1;exitX=0.5;exitY=1;exitDx=0;exitDy=0;" edge="1" parent="3" source="IsArL2XFpSbaTc7LkYc3-99">
          <mxGeometry relative="1" as="geometry">
            <mxPoint x="115.5" y="710" as="sourcePoint" />
            <mxPoint x="115.5" y="812" as="targetPoint" />
          </mxGeometry>
        </mxCell>
        <mxCell id="IsArL2XFpSbaTc7LkYc3-106" value="根据估时，优先级&lt;br&gt;拆分迭代周期" style="whiteSpace=wrap;html=1;fillColor=rgb(255, 255, 255);strokeColor=rgb(0, 0, 0);fontColor=rgb(0, 0, 0);rounded=1;" vertex="1" parent="3">
          <mxGeometry x="85" y="592" width="120" height="60" as="geometry" />
        </mxCell>
        <mxCell id="IsArL2XFpSbaTc7LkYc3-107" value="" style="edgeStyle=orthogonalEdgeStyle;rounded=0;orthogonalLoop=1;jettySize=auto;html=1;" edge="1" parent="3" source="IsArL2XFpSbaTc7LkYc3-74" target="IsArL2XFpSbaTc7LkYc3-106">
          <mxGeometry relative="1" as="geometry" />
        </mxCell>
        <mxCell id="IsArL2XFpSbaTc7LkYc3-113" value="提交bug" style="text;html=1;strokeColor=none;fillColor=none;align=center;verticalAlign=middle;whiteSpace=wrap;rounded=0;" vertex="1" parent="3">
          <mxGeometry x="225.5" y="1081" width="60" height="30" as="geometry" />
        </mxCell>
        <mxCell id="IsArL2XFpSbaTc7LkYc3-118" value="好了的迭代N" style="endArrow=open;endSize=12;dashed=1;html=1;rounded=0;exitX=0.401;exitY=1.033;exitDx=0;exitDy=0;exitPerimeter=0;entryX=0.122;entryY=-0.05;entryDx=0;entryDy=0;entryPerimeter=0;" edge="1" parent="3" source="IsArL2XFpSbaTc7LkYc3-109">
          <mxGeometry width="160" relative="1" as="geometry">
            <mxPoint x="77.98000000000002" y="1232" as="sourcePoint" />
            <mxPoint x="75.5" y="1314.02" as="targetPoint" />
          </mxGeometry>
        </mxCell>
        <mxCell id="IsArL2XFpSbaTc7LkYc3-119" value="好了的迭代N" style="endArrow=open;endSize=12;dashed=1;html=1;rounded=0;exitX=0.401;exitY=1.033;exitDx=0;exitDy=0;exitPerimeter=0;entryX=0.122;entryY=-0.05;entryDx=0;entryDy=0;entryPerimeter=0;" edge="1" parent="3">
          <mxGeometry width="160" relative="1" as="geometry">
            <mxPoint x="156.20000000000005" y="1222" as="sourcePoint" />
            <mxPoint x="155.5" y="1312.04" as="targetPoint" />
          </mxGeometry>
        </mxCell>
        <mxCell id="4" value="测试" style="swimlane;whiteSpace=wrap" parent="1" vertex="1">
          <mxGeometry x="730" y="130" width="270" height="1410" as="geometry" />
        </mxCell>
        <mxCell id="IsArL2XFpSbaTc7LkYc3-65" value="上阶段任务" style="rounded=1;whiteSpace=wrap;html=1;" vertex="1" parent="4">
          <mxGeometry x="90" y="242" width="120" height="60" as="geometry" />
        </mxCell>
        <mxCell id="IsArL2XFpSbaTc7LkYc3-75" value="编写测试用例" style="rounded=1;whiteSpace=wrap;html=1;" vertex="1" parent="4">
          <mxGeometry x="90" y="620" width="120" height="60" as="geometry" />
        </mxCell>
        <mxCell id="IsArL2XFpSbaTc7LkYc3-92" value="准入测试通过" style="whiteSpace=wrap;html=1;fillColor=rgb(255, 255, 255);strokeColor=rgb(0, 0, 0);fontColor=rgb(0, 0, 0);rounded=1;" vertex="1" parent="4">
          <mxGeometry x="90" y="930" width="120" height="60" as="geometry" />
        </mxCell>
        <mxCell id="IsArL2XFpSbaTc7LkYc3-95" value="测试阶段" style="whiteSpace=wrap;html=1;fillColor=rgb(255, 255, 255);strokeColor=rgb(0, 0, 0);fontColor=rgb(0, 0, 0);rounded=1;" vertex="1" parent="4">
          <mxGeometry x="90" y="1049" width="120" height="60" as="geometry" />
        </mxCell>
        <mxCell id="IsArL2XFpSbaTc7LkYc3-96" value="" style="edgeStyle=orthogonalEdgeStyle;rounded=0;orthogonalLoop=1;jettySize=auto;html=1;" edge="1" parent="4" source="IsArL2XFpSbaTc7LkYc3-92" target="IsArL2XFpSbaTc7LkYc3-95">
          <mxGeometry relative="1" as="geometry" />
        </mxCell>
        <mxCell id="IsArL2XFpSbaTc7LkYc3-109" value="验收阶段" style="whiteSpace=wrap;html=1;fillColor=rgb(255, 255, 255);strokeColor=rgb(0, 0, 0);fontColor=rgb(0, 0, 0);rounded=1;" vertex="1" parent="4">
          <mxGeometry x="-490" y="1160" width="700" height="60" as="geometry" />
        </mxCell>
        <mxCell id="IsArL2XFpSbaTc7LkYc3-110" value="" style="edgeStyle=orthogonalEdgeStyle;rounded=0;orthogonalLoop=1;jettySize=auto;html=1;" edge="1" parent="4" source="IsArL2XFpSbaTc7LkYc3-95">
          <mxGeometry relative="1" as="geometry">
            <mxPoint x="150" y="1160" as="targetPoint" />
          </mxGeometry>
        </mxCell>
        <mxCell id="IsArL2XFpSbaTc7LkYc3-108" value="班车（一周或两周一班），发车了，呜呜呜" style="rounded=1;whiteSpace=wrap;html=1;" vertex="1" parent="4">
          <mxGeometry x="-525" y="1310" width="760" height="60" as="geometry" />
        </mxCell>
        <mxCell id="IsArL2XFpSbaTc7LkYc3-112" value="修复" style="text;html=1;strokeColor=none;fillColor=none;align=center;verticalAlign=middle;whiteSpace=wrap;rounded=0;" vertex="1" parent="4">
          <mxGeometry x="20" y="1049" width="60" height="30" as="geometry" />
        </mxCell>
        <mxCell id="IsArL2XFpSbaTc7LkYc3-116" value="好了的迭代N" style="endArrow=open;endSize=12;dashed=1;html=1;rounded=0;exitX=0.086;exitY=1.083;exitDx=0;exitDy=0;exitPerimeter=0;entryX=0.122;entryY=-0.05;entryDx=0;entryDy=0;entryPerimeter=0;" edge="1" parent="4" source="IsArL2XFpSbaTc7LkYc3-109" target="IsArL2XFpSbaTc7LkYc3-108">
          <mxGeometry width="160" relative="1" as="geometry">
            <mxPoint x="-430" y="1230" as="sourcePoint" />
            <mxPoint x="-325.5" y="1280" as="targetPoint" />
          </mxGeometry>
        </mxCell>
        <mxCell id="IsArL2XFpSbaTc7LkYc3-120" value="好了的迭代N" style="endArrow=open;endSize=12;dashed=1;html=1;rounded=0;exitX=0.401;exitY=1.033;exitDx=0;exitDy=0;exitPerimeter=0;entryX=0.122;entryY=-0.05;entryDx=0;entryDy=0;entryPerimeter=0;" edge="1" parent="4">
          <mxGeometry width="160" relative="1" as="geometry">
            <mxPoint x="70.70000000000005" y="1220" as="sourcePoint" />
            <mxPoint x="70" y="1310.04" as="targetPoint" />
          </mxGeometry>
        </mxCell>
        <mxCell id="IsArL2XFpSbaTc7LkYc3-121" value="好了的迭代N" style="endArrow=open;endSize=12;dashed=1;html=1;rounded=0;exitX=0.401;exitY=1.033;exitDx=0;exitDy=0;exitPerimeter=0;entryX=0.122;entryY=-0.05;entryDx=0;entryDy=0;entryPerimeter=0;" edge="1" parent="4">
          <mxGeometry width="160" relative="1" as="geometry">
            <mxPoint x="150.20000000000005" y="1220" as="sourcePoint" />
            <mxPoint x="149.5" y="1310.04" as="targetPoint" />
          </mxGeometry>
        </mxCell>
        <mxCell id="IsArL2XFpSbaTc7LkYc3-42" value="" style="shape=flexArrow;endArrow=classic;html=1;rounded=0;exitX=0.5;exitY=1;exitDx=0;exitDy=0;endWidth=10;endSize=7.17;entryX=0.5;entryY=0;entryDx=0;entryDy=0;" edge="1" parent="1" target="IsArL2XFpSbaTc7LkYc3-63">
          <mxGeometry width="50" height="50" relative="1" as="geometry">
            <mxPoint x="310" y="230" as="sourcePoint" />
            <mxPoint x="310" y="310" as="targetPoint" />
            <Array as="points" />
          </mxGeometry>
        </mxCell>
        <mxCell id="IsArL2XFpSbaTc7LkYc3-58" value="" style="edgeStyle=orthogonalEdgeStyle;rounded=0;orthogonalLoop=1;jettySize=auto;html=1;entryX=0.146;entryY=0;entryDx=0;entryDy=0;entryPerimeter=0;" edge="1" parent="1" source="IsArL2XFpSbaTc7LkYc3-51" target="IsArL2XFpSbaTc7LkYc3-52">
          <mxGeometry relative="1" as="geometry">
            <mxPoint x="540" y="560" as="targetPoint" />
          </mxGeometry>
        </mxCell>
        <mxCell id="IsArL2XFpSbaTc7LkYc3-82" value="" style="endArrow=classic;html=1;rounded=0;entryX=0.5;entryY=0;entryDx=0;entryDy=0;exitX=0.866;exitY=1;exitDx=0;exitDy=0;exitPerimeter=0;" edge="1" parent="1" source="IsArL2XFpSbaTc7LkYc3-52" target="IsArL2XFpSbaTc7LkYc3-75">
          <mxGeometry width="50" height="50" relative="1" as="geometry">
            <mxPoint x="880" y="630" as="sourcePoint" />
            <mxPoint x="890" y="740" as="targetPoint" />
          </mxGeometry>
        </mxCell>
        <mxCell id="IsArL2XFpSbaTc7LkYc3-91" value="提供测试用例" style="endArrow=open;endSize=12;dashed=1;html=1;rounded=0;exitX=0.5;exitY=1;exitDx=0;exitDy=0;entryX=1;entryY=0.5;entryDx=0;entryDy=0;" edge="1" parent="1" source="IsArL2XFpSbaTc7LkYc3-75" target="IsArL2XFpSbaTc7LkYc3-86">
          <mxGeometry width="160" relative="1" as="geometry">
            <mxPoint x="785" y="950" as="sourcePoint" />
            <mxPoint x="880" y="1110" as="targetPoint" />
            <Array as="points">
              <mxPoint x="880" y="970" />
            </Array>
          </mxGeometry>
        </mxCell>
        <mxCell id="IsArL2XFpSbaTc7LkYc3-93" value="" style="edgeStyle=orthogonalEdgeStyle;rounded=0;orthogonalLoop=1;jettySize=auto;html=1;" edge="1" parent="1" source="IsArL2XFpSbaTc7LkYc3-88" target="IsArL2XFpSbaTc7LkYc3-92">
          <mxGeometry relative="1" as="geometry" />
        </mxCell>
        <mxCell id="IsArL2XFpSbaTc7LkYc3-97" value="" style="endArrow=classic;startArrow=classic;html=1;rounded=0;entryX=0;entryY=0.5;entryDx=0;entryDy=0;exitX=1;exitY=0.5;exitDx=0;exitDy=0;" edge="1" parent="1" source="IsArL2XFpSbaTc7LkYc3-98" target="IsArL2XFpSbaTc7LkYc3-95">
          <mxGeometry width="50" height="50" relative="1" as="geometry">
            <mxPoint x="690" y="1210" as="sourcePoint" />
            <mxPoint x="600" y="1150" as="targetPoint" />
          </mxGeometry>
        </mxCell>
        <mxCell id="IsArL2XFpSbaTc7LkYc3-105" value="" style="edgeStyle=orthogonalEdgeStyle;rounded=0;orthogonalLoop=1;jettySize=auto;html=1;entryX=0.868;entryY=-0.008;entryDx=0;entryDy=0;entryPerimeter=0;" edge="1" parent="1" source="IsArL2XFpSbaTc7LkYc3-65" target="IsArL2XFpSbaTc7LkYc3-52">
          <mxGeometry relative="1" as="geometry" />
        </mxCell>
        <mxCell id="IsArL2XFpSbaTc7LkYc3-114" value="" style="endArrow=classic;html=1;rounded=0;exitX=0.134;exitY=1;exitDx=0;exitDy=0;exitPerimeter=0;entryX=0.083;entryY=-0.017;entryDx=0;entryDy=0;entryPerimeter=0;" edge="1" parent="1" source="IsArL2XFpSbaTc7LkYc3-52" target="IsArL2XFpSbaTc7LkYc3-109">
          <mxGeometry width="50" height="50" relative="1" as="geometry">
            <mxPoint x="249.5" y="870" as="sourcePoint" />
            <mxPoint x="300" y="1280" as="targetPoint" />
          </mxGeometry>
        </mxCell>
        <mxCell id="IsArL2XFpSbaTc7LkYc3-115" value="" style="edgeStyle=orthogonalEdgeStyle;rounded=0;orthogonalLoop=1;jettySize=auto;html=1;" edge="1" parent="1" source="IsArL2XFpSbaTc7LkYc3-98" target="IsArL2XFpSbaTc7LkYc3-109">
          <mxGeometry relative="1" as="geometry" />
        </mxCell>
      </root>
    </mxGraphModel>
  </diagram>
</mxfile>
